<svg xmlns="http://www.w3.org/2000/svg" xmlns:xlink="http://www.w3.org/1999/xlink" width="104" height="30" fill="none" viewBox="0 0 104 30" aria-hidden="true" focusable="false" class="nav-logo block" style="height:28px" data-spm-anchor-id="qwencloud.docs_qwencloud.0.i1.340918b1O9wCZh"><defs><linearGradient id="qwen-cloud-cn-grad-base" x1="6.12" y1="4.25" x2="25.71" y2="4.25" gradientUnits="userSpaceOnUse"><stop offset=".35" stop-color="#7bbafe"></stop><stop offset=".65" stop-color="#7bbafe" stop-opacity=".2"></stop><stop offset=".85" stop-color="#7bbafe" stop-opacity=".07"></stop><stop offset="1" stop-color="#7bbafe" stop-opacity="0"></stop></linearGradient><linearGradient id="qwen-cloud-cn-grad-1" x1="-4898.4" y1="1629.69" x2="-4878.81" y2="1629.69" gradientTransform="translate(-1009.01 5070.25) rotate(120)" xlink:href="#qwen-cloud-cn-grad-base"></linearGradient><linearGradient id="qwen-cloud-cn-grad-2" x1="-1266.24" y1="4805.73" x2="-1246.65" y2="4805.73" gradientTransform="translate(-4785.34 1334.71) rotate(-120)" xlink:href="#qwen-cloud-cn-grad-base"></linearGradient></defs><path fill="#23f" d="M7.68,8.4c-.4-.7-.4-1.56,0-2.27l2.61-4.53c.2-.35.49-.63.83-.83.34-.2.73-.3,1.13-.3h1.74c.81,0,1.56.43,1.96,1.13l1.52,2.64h6.1c.81,0,1.56.43,1.96,1.13l.87,1.51c.2.35.3.74.3,1.13,0,.39-.1.78-.3,1.13l-.65,1.13c-.4.7-1.15,1.13-1.96,1.13h-13.06c-.81,0-1.56-.43-1.96-1.13l-1.09-1.89ZM29.03,18.2l-2.61-4.52c-.4-.7-1.15-1.13-1.96-1.13h-2.18c-.81,0-1.56.43-1.96,1.13l-6.53,11.31c-.4.7-.4,1.56,0,2.27l.65,1.13c.2.35.49.63.83.83.34.2.73.3,1.13.3h1.74c.81,0,1.56-.43,1.96-1.13l3.05-5.28h2.03s-2.03,0-2.03,0h2.03s1.02,0,1.02,0c.81,0,1.56-.43,1.96-1.13l.87-1.51c.2-.35.3-.74.3-1.13s-.1-.78-.3-1.13ZM13.56,20.85l-6.53-11.31c-.4-.7-1.15-1.13-1.96-1.13h-1.31c-.4,0-.79.11-1.13.3-.34.2-.63.48-.83.83l-.87,1.51c-.41.7-.41,1.57,0,2.27l3.05,5.28-1.52,2.64c-.4.7-.4,1.56,0,2.27l.87,1.51c.2.35.49.63.83.83.34.2.73.3,1.13.3h5.22c.81,0,1.56-.43,1.96-1.13l1.09-1.89c.4-.7.4-1.56,0-2.27Z"></path><path fill="#0b0c0f" d="M55.53,13.08v2.29c0,.14-.11.25-.25.25h-8.46v10.45c0,.14-.11.25-.25.25h-2.66c-.14,0-.25-.11-.25-.25v-10.45h-9.15c-.14,0-.25-.11-.25-.25v-2.29c0-.14.11-.25.25-.25h9.15v-4.74c-3.34.29-5.89.43-5.95.43l-.69.04c-.1,0-.19-.04-.23-.13l-1.28-2.22c-.1-.16.02-.37.21-.38h.31c8.81-.38,15.63-1.48,16.88-1.68.1-.02.2.03.26.12l1.24,2.15c.09.15,0,.35-.18.38l-.22.04c-2.18.38-4.74.7-7.18.95v5.03h8.46c.14,0,.25.11.25.25ZM61.36,9.34h-2.58c-.14,0-.25.11-.25.25v16.48c0,.14.11.25.25.25h2.58c.14,0,.25-.11.25-.25V9.59c0-.14-.11-.25-.25-.25ZM60.71,7.93c.05.08.13.13.23.13h2.67c.2,0,.32-.21.22-.38h0s0-.01,0-.01l-.03-.05-1.94-3.36c-.05-.08-.13-.13-.22-.13h-2.66c-.2,0-.33.22-.23.39l1.96,3.41ZM85.21,8.44c.05.08.14.13.23.13h15.09c.14,0,.25-.11.25-.25v-2.29c0-.14-.11-.25-.25-.25h-16.39c-.21,0-.34.22-.23.4l1.3,2.26ZM73.46,20.58h-9.62c-.14,0-.25-.11-.25-.25v-9.17c0-.14.11-.25.25-.25h9.62c.14,0,.25.11.25.25v9.17c0,.14-.11.25-.25.25ZM70.71,13.6h-4.13v4.28s4.13,0,4.13,0v-4.28ZM99.23,19.83c-.08-.14-.24-.23-.4-.23h-1.63c-.17,0-.32.09-.4.23l-.41.72c-.08.14-.08.32,0,.46l3.07,5.31h3.56l-1.81-3.1-1.97-3.39ZM103.13,12.67h-21.13c-.14,0-.25.11-.25.25v2.3c0,.14.11.25.25.25h6.45l-4.87,8.5-.49.8c-.42.68.07,1.55.87,1.55h14.25l-1.64-2.79h-8.93c-.07,0-.12-.08-.08-.14l4.57-7.92h11c.14,0,.25-.11.25-.25v-2.3c0-.14-.11-.25-.25-.25ZM78.01,5.27h-13.12c-.2,0-.32.21-.22.38l1.32,2.29c.05.08.13.13.22.13h9.21c.14,0,.25.11.25.25v14.97c0,.14-.11.25-.25.25h-3.71c-.2,0-.32.21-.22.38l1.32,2.29c.05.08.13.13.22.13h4.97c.42,0,.76-.34.76-.76V6.03c0-.42-.34-.76-.76-.76Z"></path><path fill="url(#qwen-cloud-cn-grad-base)" fill-opacity="0.6" d="M12.65,5.07l-.78,1.36c-.41.71.1,1.59.92,1.59h13.93c0-.39-.1-.78-.3-1.13l-.87-1.51c-.4-.7-1.15-1.13-1.96-1.13h-6.1l-1.52-2.64c-.4-.7-1.15-1.13-1.96-1.13h-1.74c-.4,0-.79.11-1.13.3l1.53,2.65c.29.51.29,1.14,0,1.65Z"></path><path fill="url(#qwen-cloud-cn-grad-1)" fill-opacity="0.6" d="M24.85,18.51l-.78-1.36c-.41-.71-1.43-.71-1.84,0l-6.97,12.07c.34.2.73.3,1.13.3h1.74c.81,0,1.56-.43,1.96-1.13l3.05-5.28h3.05c.81,0,1.56-.43,1.96-1.13l.87-1.51c.2-.35.3-.74.3-1.13h-3.06c-.59,0-1.13-.31-1.43-.82Z"></path><polygon fill="#23f" points="2.45 21.23 2.45 21.23 3.97 18.59 2.45 21.23"></polygon><path fill="url(#qwen-cloud-cn-grad-2)" fill-opacity="0.6" d="M7.11,22.36h1.57c.82,0,1.33-.88.92-1.59L2.63,8.7c-.34.2-.63.48-.83.83l-.87,1.51c-.41.7-.41,1.57,0,2.27l3.05,5.28-1.52,2.64c-.4.7-.4,1.56,0,2.27l.87,1.51c.2.35.49.63.83.83l1.53-2.65c.29-.51.84-.82,1.43-.82Z"></path></svg>
